<svg width="380" height="380" xmlns="http://www.w3.org/2000/svg" xmlns:xlink="http://www.w3.org/1999/xlink" overflow="hidden"><g transform="translate(-729 -998)"><path d="M730 1188C730 1083.62 814.618 999 919 999L919 999C1023.38 999 1108 1083.62 1108 1188L1108 1188C1108 1292.38 1023.38 1377 919 1377L919 1377C814.618 1377 730 1292.38 730 1188Z" fill="#F2F2F2" fill-rule="evenodd"/><g><g><g><path d="M298.308 1054.51 319.73 1067.01 317.887 1086.51 335.969 1077.67 360.155 1091.89 356.354 1114.72 349.214 1118.96 346.564 1140.64 322.148 1154.29 307.061 1143.73 305.564 1145.11 304.527 1165.76 277.807 1181.12 262.835 1169.42 231.394 1188.35 209.626 1168.17 207.323 1147.06 194.77 1153.82 175.536 1138 171.966 1113.69 192.035 1104.69 192.005 1089.37 218.034 1078.14 230.357 1086.85 235.261 1084.83 235.54 1069.88 253.521 1061.05 254.679 1103.22 254.658 1103.36 254.688 1103.57 254.698 1103.93 254.738 1103.93 254.932 1105.3C256.188 1109.7 261.621 1113 268.133 1113 274.645 1113 280.078 1109.7 281.334 1105.3L281.5 1104.12 281.548 1104.12 281.56 1103.7 281.608 1103.36 281.577 1103.14 282.775 1062.07Z" fill-rule="evenodd" transform="matrix(1 0 0 1.00071 652.034 163.995)"/><path d="M268.088 954.734C276.516 954.734 283.547 957.581 285.173 961.369L285.479 962.813 285.528 962.813 285.522 963.016 285.528 963.048 285.52 963.081 281.453 1102.98 281.486 1103.21 281.437 1103.56 281.425 1103.98 281.377 1103.98 281.211 1105.16C279.951 1109.58 274.503 1112.91 267.973 1112.91 261.442 1112.91 255.994 1109.58 254.734 1105.16L254.54 1103.78 254.499 1103.78 254.49 1103.43 254.46 1103.21 254.48 1103.07 250.653 963.065 250.648 963.048 250.651 963.032 250.648 962.902 250.678 962.902 251.003 961.369C252.629 957.581 259.66 954.734 268.088 954.734Z" stroke="#000000" stroke-width="6.48927" stroke-miterlimit="8" fill="none" fill-rule="evenodd" transform="matrix(1 0 0 1.00071 652.034 163.995)"/><path d="M204.412 922.288C204.412 886.897 233.103 858.206 268.494 858.206 303.884 858.206 332.575 886.897 332.575 922.288 332.575 957.678 303.884 986.369 268.494 986.369 233.103 986.369 204.412 957.678 204.412 922.288Z" fill-rule="evenodd" transform="matrix(1 0 0 1.00071 652.034 163.995)"/></g></g></g></g></svg>